<svg xmlns="http://www.w3.org/2000/svg" viewBox="0 0 800 800" role="img" aria-label="Ocean Odyssey emblem">
  <defs>
    <linearGradient id="bg" x1="0" y1="0" x2="1" y2="1">
      <stop offset="0%" stop-color="#0ea5e9"/>
      <stop offset="100%" stop-color="#0f172a"/>
    </linearGradient>
    <linearGradient id="ring" x1="0" y1="0" x2="1" y2="1">
      <stop offset="0%" stop-color="#67e8f9"/>
      <stop offset="100%" stop-color="#a5b4fc"/>
    </linearGradient>
  </defs>
  <rect width="800" height="800" rx="180" fill="url(#bg)"/>
  <circle cx="400" cy="400" r="262" fill="none" stroke="url(#ring)" stroke-width="20" opacity="0.9"/>
  <path d="M150 500 C250 440 330 540 430 500 C530 460 620 560 700 500" stroke="#67e8f9" stroke-width="18" fill="none" stroke-linecap="round"/>
  <path d="M140 560 C240 500 330 600 430 560 C530 520 610 600 690 560" stroke="#bfdbfe" stroke-width="14" fill="none" stroke-linecap="round" opacity="0.9"/>
  <g transform="translate(248 265)">
    <rect x="0" y="104" width="304" height="84" rx="42" fill="#e2e8f0"/>
    <rect x="94" y="62" width="118" height="44" rx="12" fill="#cbd5e1"/>
    <circle cx="75" cy="145" r="12" fill="#0f172a"/>
    <circle cx="118" cy="145" r="12" fill="#0f172a"/>
    <circle cx="161" cy="145" r="12" fill="#0f172a"/>
    <circle cx="255" cy="145" r="16" fill="#94a3b8"/>
    <line x1="152" y1="62" x2="152" y2="25" stroke="#e2e8f0" stroke-width="8"/>
    <circle cx="152" cy="17" r="10" fill="#f8fafc"/>
  </g>
  <text x="400" y="688" text-anchor="middle" fill="#e0f2fe" font-family="Segoe UI, sans-serif" font-size="54" font-weight="700" letter-spacing="3">ABYSSOS</text>
</svg>
